<?xml version="1.0" standalone="no"?>
<!DOCTYPE svg PUBLIC "-//W3C//DTD SVG 20010904//EN"
 "http://www.w3.org/TR/2001/REC-SVG-20010904/DTD/svg10.dtd">
<svg version="1.0" xmlns="http://www.w3.org/2000/svg"
 width="1024.000000pt" height="1024.000000pt" viewBox="0 0 1024.000000 1024.000000"
 preserveAspectRatio="xMidYMid meet">

<g transform="translate(0.000000,1024.000000) scale(0.100000,-0.100000)"
fill="#003932" stroke="none">
<path d="M6345 8104 c-387 -39 -640 -200 -812 -514 -53 -98 -98 -266 -91 -340
3 -35 3 -35 98 -63 133 -40 295 -47 432 -19 287 59 507 236 646 517 52 106 66
144 106 292 l25 93 -22 5 c-104 22 -298 37 -382 29z"/>
<path d="M5055 7938 c-54 -42 -55 -51 -55 -511 l0 -424 -62 -13 c-87 -17 -207
-61 -274 -101 -78 -46 -215 -178 -268 -258 -69 -105 -91 -156 -156 -365 -33
-108 -63 -202 -66 -210 -6 -17 95 -59 184 -76 131 -26 310 10 447 90 38 23
108 70 155 105 224 167 381 227 590 228 76 0 128 -6 190 -22 87 -22 221 -80
252 -108 10 -9 18 -12 18 -7 0 32 -77 230 -117 303 -61 109 -204 258 -311 320
-80 48 -211 97 -284 107 -36 5 -48 11 -52 28 -3 11 -6 207 -6 434 0 349 -2
418 -15 442 -30 59 -119 79 -170 38z"/>
<path d="M5427 6065 c-94 -19 -193 -70 -322 -166 -163 -120 -254 -173 -360
-208 -209 -69 -468 -54 -623 36 -24 13 -45 23 -47 21 -2 -1 -21 -45 -43 -96
-69 -160 -104 -212 -343 -508 -92 -114 -205 -273 -197 -278 1 -1 28 -20 58
-41 76 -53 178 -99 285 -126 167 -43 425 -28 580 33 137 54 244 119 409 251
126 100 252 185 346 232 333 168 691 213 1015 128 111 -29 235 -78 287 -113
29 -20 27 -17 -14 26 -100 106 -200 267 -255 412 -58 155 -114 220 -266 306
-161 91 -349 125 -510 91z"/>
<path d="M5690 5045 c-260 -38 -455 -130 -705 -330 -289 -232 -519 -337 -804
-366 -265 -27 -579 53 -770 197 -50 38 -65 44 -72 33 -18 -28 -71 -206 -89
-299 -10 -52 -22 -136 -25 -186 -9 -108 -13 -101 137 -201 359 -237 743 -300
1123 -183 179 55 313 130 572 322 368 272 779 376 1183 298 85 -16 247 -68
335 -107 73 -33 352 -190 417 -235 14 -10 29 -18 33 -18 10 0 -3 164 -21 270
-16 94 -30 141 -81 276 l-35 91 -87 66 c-251 190 -527 329 -731 367 -93 18
-277 20 -380 5z"/>
<path d="M5860 4024 c-271 -39 -450 -116 -690 -295 -245 -184 -371 -254 -570
-319 -200 -66 -260 -75 -485 -75 -223 1 -312 13 -463 67 -126 44 -283 127
-388 205 -17 13 -33 23 -36 23 -10 0 32 -184 64 -280 125 -381 423 -753 726
-905 274 -138 603 -124 950 40 165 78 269 157 533 407 74 70 165 151 203 181
130 104 301 188 473 234 84 23 119 26 253 27 173 1 256 -13 387 -66 41 -17 78
-26 82 -22 28 32 128 365 115 385 -3 5 -9 9 -14 9 -4 0 -102 55 -217 122 -233
137 -342 187 -476 222 -146 38 -340 55 -447 40z"/>
<path d="M6291 3005 c-95 -21 -157 -43 -245 -87 -127 -63 -185 -108 -416 -328
-181 -172 -216 -203 -290 -257 -105 -76 -280 -165 -395 -201 l-50 -16 100 -9
c234 -21 603 38 865 140 125 48 346 164 440 231 175 123 486 459 449 483 -8 5
-43 19 -79 30 -85 28 -285 35 -379 14z"/>
</g>
</svg>
