<svg width="1000" height="1000" viewBox="0 0 1000 1000" fill="none" xmlns="http://www.w3.org/2000/svg">
<g clip-path="url(#clip0_1077_160)">
<circle cx="500" cy="500" r="500" fill="#D9D9D9"/>
<path d="M639.073 157.249C594.834 161.707 565.912 180.112 546.251 216.006C540.192 227.209 535.048 246.414 535.848 254.873C536.191 258.874 536.191 258.874 547.051 262.075C562.254 266.647 580.773 267.447 596.434 264.247C629.242 257.502 654.391 237.269 670.281 205.147C676.225 193.029 677.825 188.685 682.398 171.767L685.256 161.136L682.741 160.564C670.852 158.049 648.675 156.335 639.073 157.249Z" fill="#1D1D1F"/>
<path d="M491.609 176.225C485.436 181.026 485.322 182.055 485.322 234.639V283.108L478.234 284.594C468.289 286.538 454.571 291.568 446.912 296.14C437.996 301.398 422.335 316.488 416.276 325.633C408.389 337.636 405.874 343.466 398.443 367.357C394.671 379.703 391.242 390.449 390.899 391.363C390.213 393.307 401.758 398.108 411.932 400.051C426.907 403.023 447.369 398.908 463.03 389.763C467.374 387.134 475.376 381.761 480.749 377.76C506.355 358.67 524.302 351.811 548.194 351.696C556.882 351.696 562.826 352.382 569.913 354.211C579.859 356.726 595.177 363.356 598.72 366.557C599.864 367.586 600.778 367.929 600.778 367.357C600.778 363.699 591.976 341.065 587.403 332.72C580.43 320.26 564.084 303.227 551.852 296.14C542.707 290.653 527.732 285.052 519.387 283.909C515.272 283.337 513.9 282.651 513.443 280.708C513.1 279.45 512.757 257.045 512.757 231.096C512.757 191.2 512.528 183.313 511.042 180.569C507.613 173.825 497.439 171.538 491.609 176.225Z" fill="#1D1D1F"/>
<path d="M534.133 390.334C523.388 392.506 512.071 398.336 497.324 409.31C478.691 423.028 468.289 429.087 456.172 433.088C432.28 440.975 402.673 439.261 384.954 428.972C382.211 427.486 379.81 426.343 379.582 426.572C379.353 426.686 377.181 431.716 374.666 437.546C366.778 455.836 362.777 461.78 335.457 495.617C324.94 508.649 312.022 526.825 312.937 527.396C313.051 527.511 316.138 529.683 319.567 532.083C328.255 538.142 339.915 543.4 352.146 546.487C371.237 551.402 400.729 549.687 418.448 542.714C434.109 536.541 446.341 529.111 465.202 514.022C479.606 502.59 494.009 492.874 504.755 487.501C542.821 468.296 583.745 463.152 620.783 472.869C633.472 476.184 647.647 481.785 653.591 485.786C656.906 488.072 656.677 487.729 651.99 482.814C640.559 470.697 629.128 452.292 622.841 435.717C616.21 417.998 609.809 410.568 592.433 400.737C574.029 390.334 552.538 386.448 534.133 390.334Z" fill="#1D1D1F"/>
<path d="M564.198 506.934C534.476 511.278 512.185 521.795 483.607 544.658C450.57 571.178 424.278 583.181 391.699 586.496C361.406 589.583 325.511 580.438 303.677 563.976C297.962 559.633 296.247 558.947 295.447 560.204C293.389 563.405 287.331 583.753 285.273 594.384C284.13 600.328 282.758 609.93 282.415 615.646C281.386 627.992 280.929 627.192 298.076 638.623C339.115 665.715 383.011 672.917 426.45 659.543C446.912 653.255 462.23 644.682 491.837 622.734C533.905 591.64 580.888 579.752 627.07 588.668C636.787 590.497 655.306 596.441 665.365 600.9C673.71 604.672 705.604 622.619 713.034 627.763C714.634 628.907 716.349 629.821 716.806 629.821C717.949 629.821 716.463 611.074 714.406 598.956C712.577 588.211 710.976 582.838 705.146 567.406L701.145 557.003L691.2 549.459C662.507 527.739 630.957 511.85 607.637 507.506C597.006 505.448 575.972 505.219 564.198 506.934Z" fill="#1D1D1F"/>
<path d="M583.631 623.648C552.652 628.106 532.19 636.909 504.755 657.371C476.748 678.404 462.345 686.406 439.596 693.837C416.733 701.381 409.875 702.41 384.154 702.41C358.662 702.296 348.488 700.924 331.227 694.751C316.823 689.721 298.876 680.233 286.873 671.317C284.93 669.831 283.101 668.688 282.758 668.688C281.615 668.688 286.416 689.721 290.074 700.695C304.363 744.249 338.429 786.774 373.066 804.149C404.388 819.924 441.997 818.324 481.664 799.577C500.525 790.66 512.414 781.629 542.593 753.051C551.052 745.049 561.454 735.79 565.798 732.36C580.659 720.472 600.207 710.869 619.868 705.611C629.471 702.982 633.472 702.639 648.79 702.524C668.566 702.41 678.054 704.011 693.029 710.069C697.716 712.013 701.946 713.041 702.403 712.584C705.604 708.926 717.035 670.86 715.549 668.573C715.206 668.002 714.52 667.545 713.948 667.545C713.491 667.545 702.289 661.257 689.142 653.598C662.507 637.937 650.047 632.222 634.729 628.221C618.039 623.877 595.863 621.934 583.631 623.648Z" fill="#1D1D1F"/>
<path d="M632.9 740.134C622.04 742.534 614.953 745.049 604.893 750.079C590.376 757.281 583.745 762.425 557.339 787.574C536.648 807.236 532.647 810.779 524.188 816.952C512.185 825.64 492.18 835.814 479.034 839.929L473.319 841.758L484.75 842.787C511.499 845.188 553.681 838.443 583.631 826.783C597.92 821.296 623.184 808.036 633.929 800.377C653.934 786.316 689.485 747.907 685.256 745.163C684.341 744.592 680.34 742.991 676.225 741.734C666.508 738.533 643.646 737.733 632.9 740.134Z" fill="#1D1D1F"/>
</g>
<defs>
<clipPath id="clip0_1077_160">
<rect width="1000" height="1000" fill="white"/>
</clipPath>
</defs>
</svg>
