<svg width="1000" height="1000" viewBox="0 0 1000 1000" fill="none" xmlns="http://www.w3.org/2000/svg">
<g clip-path="url(#clip0_1077_160)">
<circle cx="500" cy="500" r="500" fill="#D9D9D9"/>
<path d="M619.042 207.213C581.249 211.021 556.542 226.744 539.745 257.408C534.569 266.978 530.175 283.385 530.858 290.611C531.151 294.029 531.151 294.029 540.429 296.764C553.417 300.67 569.237 301.353 582.616 298.619C610.644 292.857 632.128 275.572 645.702 248.131C650.78 237.779 652.148 234.068 656.054 219.615L658.495 210.533L656.347 210.045C646.191 207.896 627.245 206.432 619.042 207.213Z" fill="#1D1D1F"/>
<path d="M493.066 223.424C487.792 227.525 487.694 228.404 487.694 273.326V314.732L481.64 316.002C473.144 317.662 461.425 321.959 454.882 325.865C447.265 330.357 433.886 343.248 428.71 351.061C421.972 361.314 419.823 366.295 413.476 386.705C410.253 397.252 407.323 406.432 407.03 407.213C406.444 408.873 416.308 412.975 424.999 414.635C437.792 417.174 455.273 413.658 468.651 405.846C472.362 403.6 479.198 399.01 483.788 395.592C505.663 379.283 520.995 373.424 541.405 373.326C548.827 373.326 553.905 373.912 559.96 375.475C568.456 377.623 581.542 383.287 584.569 386.021C585.546 386.9 586.327 387.193 586.327 386.705C586.327 383.58 578.808 364.244 574.901 357.115C568.944 346.471 554.98 331.92 544.53 325.865C536.718 321.178 523.925 316.393 516.796 315.416C513.28 314.928 512.109 314.342 511.718 312.682C511.425 311.607 511.132 292.467 511.132 270.299C511.132 236.217 510.937 229.478 509.667 227.135C506.737 221.373 498.046 219.42 493.066 223.424Z" fill="#1D1D1F"/>
<path d="M529.394 406.334C520.214 408.189 510.546 413.17 497.948 422.545C482.03 434.264 473.144 439.439 462.792 442.857C442.382 449.596 417.089 448.131 401.952 439.342C399.608 438.072 397.558 437.096 397.362 437.291C397.167 437.389 395.312 441.686 393.163 446.666C386.425 462.291 383.007 467.369 359.667 496.275C350.683 507.408 339.648 522.936 340.429 523.424C340.526 523.521 343.163 525.377 346.093 527.428C353.515 532.604 363.476 537.096 373.925 539.732C390.233 543.932 415.429 542.467 430.566 536.51C443.944 531.236 454.394 524.889 470.507 511.998C482.812 502.232 495.116 493.932 504.296 489.342C536.816 472.936 571.776 468.541 603.417 476.842C614.257 479.674 626.366 484.459 631.444 487.877C634.276 489.83 634.081 489.537 630.077 485.338C620.312 474.986 610.546 459.264 605.175 445.104C599.511 429.967 594.042 423.619 579.198 415.221C563.476 406.334 545.116 403.014 529.394 406.334Z" fill="#1D1D1F"/>
<path d="M555.077 505.943C529.687 509.654 510.644 518.639 486.23 538.17C458.007 560.826 435.546 571.08 407.714 573.912C381.835 576.549 351.171 568.736 332.519 554.674C327.636 550.963 326.171 550.377 325.487 551.451C323.73 554.186 318.554 571.568 316.796 580.65C315.819 585.728 314.648 593.932 314.355 598.814C313.476 609.361 313.085 608.678 327.733 618.443C362.792 641.588 400.292 647.74 437.401 636.314C454.882 630.943 467.968 623.619 493.261 604.869C529.198 578.307 569.335 568.15 608.788 575.768C617.089 577.33 632.909 582.408 641.503 586.217C648.632 589.439 675.878 604.771 682.226 609.166C683.593 610.143 685.058 610.924 685.448 610.924C686.425 610.924 685.155 594.908 683.398 584.557C681.835 575.377 680.468 570.787 675.487 557.603L672.069 548.717L663.573 542.271C639.062 523.717 612.108 510.143 592.187 506.432C583.105 504.674 565.136 504.478 555.077 505.943Z" fill="#1D1D1F"/>
<path d="M571.679 605.65C545.214 609.459 527.734 616.979 504.296 634.459C480.37 652.428 468.066 659.264 448.632 665.611C429.101 672.057 423.241 672.936 401.269 672.936C379.491 672.838 370.8 671.666 356.054 666.393C343.749 662.096 328.417 653.99 318.163 646.373C316.503 645.104 314.941 644.127 314.648 644.127C313.671 644.127 317.773 662.096 320.898 671.471C333.105 708.678 362.206 745.006 391.796 759.85C418.554 773.326 450.683 771.959 484.569 755.943C500.683 748.326 510.839 740.611 536.62 716.197C543.847 709.361 552.734 701.451 556.444 698.522C569.14 688.365 585.839 680.162 602.636 675.67C610.839 673.424 614.257 673.131 627.343 673.033C644.237 672.936 652.343 674.303 665.136 679.479C669.14 681.139 672.753 682.018 673.144 681.627C675.878 678.502 685.644 645.982 684.374 644.029C684.081 643.541 683.495 643.15 683.007 643.15C682.616 643.15 673.046 637.779 661.816 631.236C639.062 617.857 628.417 612.975 615.331 609.557C601.073 605.846 582.128 604.186 571.679 605.65Z" fill="#1D1D1F"/>
<path d="M613.769 705.162C604.491 707.213 598.437 709.361 589.843 713.658C577.441 719.811 571.776 724.205 549.218 745.689C531.542 762.486 528.124 765.514 520.898 770.787C510.644 778.209 493.554 786.9 482.323 790.416L477.441 791.978L487.206 792.857C510.058 794.908 546.093 789.146 571.679 779.186C583.886 774.498 605.468 763.17 614.648 756.627C631.737 744.615 662.109 711.803 658.495 709.459C657.714 708.971 654.296 707.603 650.78 706.529C642.48 703.795 622.948 703.111 613.769 705.162Z" fill="#1D1D1F"/>
</g>
<defs>
<clipPath id="clip0_1077_160">
<rect width="1000" height="1000" fill="white"/>
</clipPath>
</defs>
</svg>
