<svg width="508" height="801" viewBox="0 0 508 801" fill="none" xmlns="http://www.w3.org/2000/svg">
<path d="M416.484 0.290651C364.884 5.49065 331.151 26.9573 308.217 68.824C301.151 81.8907 295.151 104.291 296.084 114.157C296.484 118.824 296.484 118.824 309.151 122.557C326.884 127.891 348.484 128.824 366.751 125.091C405.017 117.224 434.351 93.624 452.884 56.1573C459.817 42.024 461.684 36.9573 467.017 17.224L470.351 4.82398L467.417 4.15732C453.551 1.22398 427.684 -0.776016 416.484 0.290651Z" fill="#626c71"/>
<path d="M244.484 22.424C237.284 28.024 237.151 29.224 237.151 90.5573V147.091L228.884 148.824C217.284 151.091 201.284 156.957 192.351 162.291C181.951 168.424 163.684 186.024 156.618 196.691C147.418 210.691 144.484 217.491 135.818 245.357C131.418 259.757 127.418 272.291 127.018 273.357C126.218 275.624 139.684 281.224 151.551 283.491C169.018 286.957 192.884 282.157 211.151 271.491C216.218 268.424 225.551 262.157 231.818 257.491C261.684 235.224 282.618 227.224 310.484 227.091C320.618 227.091 327.551 227.891 335.818 230.024C347.418 232.957 365.284 240.691 369.418 244.424C370.751 245.624 371.818 246.024 371.818 245.357C371.818 241.091 361.551 214.691 356.218 204.957C348.084 190.424 329.018 170.557 314.751 162.291C304.084 155.891 286.618 149.357 276.884 148.024C272.084 147.357 270.484 146.557 269.951 144.291C269.551 142.824 269.151 116.691 269.151 86.424C269.151 39.8906 268.884 30.6906 267.151 27.4906C263.151 19.624 251.284 16.9573 244.484 22.424Z" fill="#626c71"/>
<path d="M294.084 272.157C281.551 274.691 268.351 281.491 251.151 294.291C229.417 310.291 217.284 317.357 203.151 322.024C175.284 331.224 140.751 329.224 120.084 317.224C116.884 315.491 114.084 314.157 113.817 314.424C113.551 314.557 111.017 320.424 108.084 327.224C98.8841 348.557 94.2175 355.491 62.3508 394.957C50.0841 410.157 35.0174 431.357 36.0841 432.024C36.2174 432.157 39.8174 434.691 43.8174 437.491C53.9508 444.557 67.5508 450.691 81.8175 454.291C104.084 460.024 138.484 458.024 159.151 449.891C177.417 442.691 191.684 434.024 213.684 416.424C230.484 403.091 247.284 391.757 259.817 385.491C304.217 363.091 351.951 357.091 395.151 368.424C409.951 372.291 426.484 378.824 433.417 383.491C437.284 386.157 437.017 385.757 431.551 380.024C418.217 365.891 404.884 344.424 397.551 325.091C389.817 304.424 382.351 295.757 362.084 284.291C340.617 272.157 315.551 267.624 294.084 272.157Z" fill="#626c71"/>
<path d="M329.151 408.157C294.484 413.224 268.484 425.491 235.151 452.157C196.617 483.091 165.951 497.091 127.951 500.957C92.6174 504.557 50.7508 493.891 25.2841 474.691C18.6174 469.624 16.6174 468.824 15.6841 470.291C13.2841 474.024 6.21744 497.757 3.81744 510.157C2.48411 517.091 0.884111 528.291 0.484111 534.957C-0.715889 549.357 -1.24922 548.424 18.7508 561.757C66.6174 593.357 117.817 601.757 168.484 586.157C192.351 578.824 210.217 568.824 244.751 543.224C293.817 506.957 348.617 493.091 402.484 503.491C413.817 505.624 435.417 512.557 447.151 517.757C456.884 522.157 494.084 543.091 502.751 549.091C504.617 550.424 506.617 551.491 507.151 551.491C508.484 551.491 506.751 529.624 504.351 515.491C502.217 502.957 500.351 496.691 493.551 478.691L488.884 466.557L477.284 457.757C443.817 432.424 407.017 413.891 379.817 408.824C367.417 406.424 342.884 406.157 329.151 408.157Z" fill="#626c71"/>
<path d="M351.818 544.291C315.684 549.491 291.818 559.757 259.818 583.624C227.151 608.157 210.351 617.491 183.818 626.157C157.151 634.957 149.151 636.157 119.151 636.157C89.4176 636.024 77.5509 634.424 57.4175 627.224C40.6175 621.357 19.6842 610.291 5.68421 599.891C3.41754 598.157 1.28421 596.824 0.88421 596.824C-0.449123 596.824 5.15088 621.357 9.41754 634.157C26.0842 684.957 65.8175 734.557 106.218 754.824C142.751 773.224 186.618 771.357 232.884 749.491C254.884 739.091 268.751 728.557 303.951 695.224C313.818 685.891 325.951 675.091 331.018 671.091C348.351 657.224 371.151 646.024 394.084 639.891C405.284 636.824 409.951 636.424 427.818 636.291C450.884 636.157 461.951 638.024 479.418 645.091C484.884 647.357 489.818 648.557 490.351 648.024C494.084 643.757 507.418 599.357 505.684 596.691C505.284 596.024 504.484 595.491 503.818 595.491C503.284 595.491 490.218 588.157 474.884 579.224C443.818 560.957 429.284 554.291 411.418 549.624C391.951 544.557 366.084 542.291 351.818 544.291Z" fill="#626c71"/>
<path d="M409.284 680.157C396.618 682.957 388.351 685.891 376.618 691.757C359.684 700.157 351.951 706.157 321.151 735.491C297.018 758.424 292.351 762.557 282.484 769.757C268.484 779.891 245.151 791.757 229.818 796.557L223.151 798.691L236.484 799.891C267.684 802.691 316.884 794.824 351.818 781.224C368.484 774.824 397.951 759.357 410.484 750.424C433.818 734.024 475.284 689.224 470.351 686.024C469.284 685.357 464.618 683.491 459.818 682.024C448.484 678.291 421.818 677.357 409.284 680.157Z" fill="#626c71"/>
</svg>
